<svg xmlns="http://www.w3.org/2000/svg" width="128" height="128" id="chat"><path fill="#3B97D3" d="M82 82v4c0 3.3-2.7 6-6 6H39l-1 .8-13 10V92h-8c-3.3 0-6-2.7-6-6V44c0-3.3 2.7-6 6-6h23v-4H17c-5.5 0-10 4.5-10 10v42c0 5.5 4.5 10 10 10h4v15l19.4-15H76c5.5 0 10-4.5 10-10v-4h-4z"></path><path fill="#2C3E50" d="M111 22c3.3 0 6 2.7 6 6v42c0 3.3-2.7 6-6 6h-8v10.9l-13-10-1-.9H52c-3.3 0-6-2.7-6-6V28c0-3.3 2.7-6 6-6h59m0-4H52c-5.5 0-10 4.5-10 10v42c0 5.5 4.5 10 10 10h35.6L107 95V80h4c5.5 0 10-4.5 10-10V28c0-5.5-4.5-10-10-10z"></path></svg>