<svg xmlns="http://www.w3.org/2000/svg" xmlns:svgjs="http://svgjs.com/svgjs" xmlns:xlink="http://www.w3.org/1999/xlink" width="288" height="288"><svg xmlns="http://www.w3.org/2000/svg" width="288" height="288" viewBox="0 0 24 24"><path fill="#f1f1f1" d="M 12 9.519531 C 10.628906 9.519531 9.519531 10.628906 9.519531 12 C 9.519531 13.371094 10.628906 14.480469 12 14.480469 C 13.371094 14.480469 14.480469 13.371094 14.480469 12 C 14.480469 10.628906 13.371094 9.519531 12 9.519531 Z M 21.929688 7.070312 C 21.925781 6.296875 21.78125 5.53125 21.511719 4.808594 C 21.105469 3.742188 20.257812 2.894531 19.191406 2.488281 C 18.46875 2.21875 17.703125 2.074219 16.929688 2.070312 C 15.640625 2 15.261719 2 12 2 C 8.738281 2 8.359375 2 7.070312 2.070312 C 6.296875 2.074219 5.53125 2.21875 4.808594 2.488281 C 3.742188 2.894531 2.894531 3.742188 2.488281 4.808594 C 2.21875 5.53125 2.074219 6.296875 2.070312 7.070312 C 2 8.359375 2 8.738281 2 12 C 2 15.261719 2 15.640625 2.070312 16.929688 C 2.082031 17.703125 2.222656 18.472656 2.488281 19.199219 C 2.691406 19.726562 3 20.203125 3.398438 20.601562 C 3.796875 21.003906 4.28125 21.3125 4.808594 21.511719 C 5.53125 21.78125 6.296875 21.925781 7.070312 21.929688 C 8.359375 22 8.738281 22 12 22 C 15.261719 22 15.640625 22 16.929688 21.929688 C 17.703125 21.925781 18.46875 21.78125 19.191406 21.511719 C 19.71875 21.3125 20.203125 21.003906 20.601562 20.601562 C 21 20.203125 21.308594 19.726562 21.511719 19.199219 C 21.78125 18.472656 21.925781 17.707031 21.929688 16.929688 C 22 15.640625 22 15.261719 22 12 C 22 8.738281 22 8.359375 21.929688 7.070312 Z M 19.390625 15.070312 C 19.359375 15.6875 19.226562 16.296875 19 16.871094 C 18.609375 17.839844 17.839844 18.609375 16.871094 19 C 16.289062 19.214844 15.679688 19.332031 15.058594 19.351562 C 14.269531 19.351562 14.058594 19.351562 12 19.351562 C 9.941406 19.351562 9.730469 19.351562 8.941406 19.351562 C 8.320312 19.332031 7.710938 19.214844 7.128906 19 C 6.632812 18.816406 6.1875 18.523438 5.820312 18.140625 C 5.457031 17.78125 5.179688 17.347656 5 16.871094 C 4.785156 16.289062 4.671875 15.679688 4.660156 15.058594 C 4.660156 14.269531 4.660156 14.058594 4.660156 12 C 4.660156 9.941406 4.660156 9.730469 4.660156 8.941406 C 4.671875 8.320312 4.785156 7.710938 5 7.128906 C 5.183594 6.632812 5.476562 6.1875 5.859375 5.820312 C 6.21875 5.460938 6.652344 5.179688 7.128906 5 C 7.710938 4.785156 8.320312 4.667969 8.941406 4.648438 C 9.730469 4.648438 9.941406 4.648438 12 4.648438 C 14.058594 4.648438 14.269531 4.648438 15.058594 4.648438 C 15.679688 4.667969 16.289062 4.785156 16.871094 5 C 17.367188 5.183594 17.8125 5.476562 18.179688 5.859375 C 18.542969 6.21875 18.820312 6.652344 19 7.128906 C 19.214844 7.710938 19.332031 8.320312 19.351562 8.941406 C 19.351562 9.730469 19.351562 9.941406 19.351562 12 C 19.351562 14.058594 19.421875 14.269531 19.390625 15.058594 Z M 17.789062 7.628906 C 17.550781 6.976562 17.035156 6.460938 16.378906 6.21875 C 15.9375 6.066406 15.46875 5.992188 15 6 C 14.21875 6 14 6 12 6 C 10 6 9.78125 6 9 6 C 8.527344 6.003906 8.0625 6.09375 7.621094 6.261719 C 6.976562 6.488281 6.464844 6.984375 6.210938 7.621094 C 6.066406 8.066406 5.992188 8.53125 6 9 C 6 9.78125 6 10 6 12 C 6 14 6 14.21875 6 15 C 6.011719 15.472656 6.097656 15.9375 6.261719 16.378906 C 6.5 17.035156 7.015625 17.550781 7.671875 17.789062 C 8.097656 17.945312 8.546875 18.035156 9 18.050781 C 9.78125 18.050781 10 18.050781 12 18.050781 C 14 18.050781 14.21875 18.050781 15 18.050781 C 15.472656 18.046875 15.9375 17.957031 16.378906 17.789062 C 17.035156 17.550781 17.550781 17.035156 17.789062 16.378906 C 17.957031 15.9375 18.046875 15.472656 18.050781 15 C 18.050781 14.21875 18.050781 14 18.050781 12 C 18.050781 10 18.050781 9.78125 18.050781 9 C 18.050781 8.527344 17.960938 8.058594 17.789062 7.621094 Z M 12 15.820312 C 10.988281 15.820312 10.015625 15.417969 9.300781 14.699219 C 8.585938 13.984375 8.1875 13.011719 8.191406 12 C 8.191406 9.890625 9.902344 8.179688 12.011719 8.179688 C 14.125 8.183594 15.832031 9.894531 15.828125 12.007812 C 15.828125 14.117188 14.109375 15.824219 12 15.820312 Z M 16 8.929688 C 15.542969 8.882812 15.195312 8.496094 15.195312 8.035156 C 15.195312 7.574219 15.542969 7.1875 16 7.140625 C 16.457031 7.1875 16.804688 7.574219 16.804688 8.035156 C 16.804688 8.496094 16.457031 8.882812 16 8.929688 Z M 16 8.929688 " class="color000 svgShape"/></svg></svg>